<?xml version="1.0" encoding="UTF-8"?><svg id="Layer_2" xmlns="http://www.w3.org/2000/svg" viewBox="0 0 767.65 856.51"><defs><style>.cls-1{fill:#181839;}</style></defs><path class="cls-1" d="M486.27,250.18c-13.2-2.67-26.86-4.06-40.84-4.06h-115.89V75.24h-63.91V388.71h63.91v-78.69h115.89c78.48,0,142.1,63.63,142.1,142.11,0,69.25-49.53,126.93-115.1,139.54h-142.89v-95.65h-.14l-24.8-24.8-60.91-60.92-10.88-10.87-6.39-6.4H116.22v63.91h83.73l65.68,65.68v258.66h63.91v-125.71h148.45c2.78-.44,5.54-.94,8.28-1.5,94.22-18.93,165.17-102.15,165.17-201.94s-70.95-183.02-165.17-201.95Z"/><rect class="cls-1" x="413.48" y="420.17" width="63.91" height="63.91"/></svg>