<?xml version="1.0" encoding="UTF-8"?><svg id="Layer_2" xmlns="http://www.w3.org/2000/svg" viewBox="0 0 854.77 856.51"><g><path d="M516.84,272.75c-11.53-2.33-23.45-3.55-35.66-3.55h-101.2V119.99h-55.81V393.72h55.81v-68.71h101.2c68.53,0,124.09,55.56,124.09,124.1,0,60.47-43.25,110.84-100.51,121.85h-124.78v-83.52h-.12l-21.66-21.66-53.19-53.2-9.5-9.49-5.58-5.59h-96.23v55.81h73.12l57.35,57.35v225.87h55.81v-109.77h129.63c2.43-.38,4.84-.82,7.23-1.31,82.28-16.53,144.23-89.2,144.23-176.34s-61.96-159.82-144.23-176.35Z"/><rect x="453.28" y="421.19" width="55.81" height="55.81"/></g><path d="M427.39,.87C191.35,.87,0,192.22,0,428.26s191.35,427.38,427.39,427.38,427.39-191.35,427.39-427.38S663.42,.87,427.39,.87Zm0,813.24c-213.1,0-385.85-172.75-385.85-385.85S214.29,42.41,427.39,42.41s385.85,172.75,385.85,385.85-172.75,385.85-385.85,385.85Z"/></svg>